<svg xmlns="http://www.w3.org/2000/svg" xmlns:xlink="http://www.w3.org/1999/xlink" width="500" zoomAndPan="magnify" viewBox="0 0 375 374.999991" height="500" preserveAspectRatio="xMidYMid meet" version="1.0"><defs><g/></defs><g fill="#e31b6d" fill-opacity="1"><g transform="translate(33.361894, 239.169995)"><g><path d="M 79.890625 4.90625 C 76.398438 4.90625 73.753906 3.820312 71.953125 1.65625 C 70.160156 -0.5 69.265625 -3.269531 69.265625 -6.65625 C 69.265625 -9.507812 70.109375 -13.679688 71.796875 -19.171875 C 72.328125 -20.972656 72.828125 -22.769531 73.296875 -24.5625 C 73.773438 -26.363281 74.015625 -27.894531 74.015625 -29.15625 C 74.015625 -31.0625 73.566406 -32.488281 72.671875 -33.4375 C 71.773438 -34.394531 70.691406 -34.875 69.421875 -34.875 C 66.992188 -34.875 64.378906 -33.15625 61.578125 -29.71875 C 58.773438 -26.28125 54.46875 -20.125 48.65625 -11.25 C 47.175781 -8.925781 45.117188 -5.019531 42.484375 0.46875 L 41.046875 3.484375 C 39.359375 3.484375 37.585938 3.191406 35.734375 2.609375 C 33.890625 2.035156 32.96875 1.269531 32.96875 0.3125 C 32.96875 -0.425781 33.863281 -3.222656 35.65625 -8.078125 C 37.875 -14.628906 39.644531 -20.148438 40.96875 -24.640625 C 42.289062 -29.140625 42.953125 -32.972656 42.953125 -36.140625 C 42.953125 -40.148438 41.628906 -42.15625 38.984375 -42.15625 C 36.023438 -42.15625 32.195312 -39.773438 27.5 -35.015625 C 22.800781 -30.265625 18.175781 -24.269531 13.625 -17.03125 C 9.082031 -9.800781 5.546875 -2.695312 3.015625 4.28125 C 1.429688 4.28125 -0.390625 3.910156 -2.453125 3.171875 C -4.515625 2.429688 -5.546875 1.691406 -5.546875 0.953125 C -5.546875 0.628906 -4.804688 -1.851562 -3.328125 -6.5 C -0.898438 -13.582031 1.128906 -20.082031 2.765625 -26 C 4.410156 -31.914062 5.285156 -37.039062 5.390625 -41.375 C 6.128906 -42.21875 7.1875 -42.984375 8.5625 -43.671875 C 9.9375 -44.359375 11.3125 -44.703125 12.6875 -44.703125 C 15.53125 -44.703125 16.953125 -43.328125 16.953125 -40.578125 C 16.953125 -37.722656 15.582031 -31.695312 12.84375 -22.5 C 18.019531 -30.75 23.59375 -37.832031 29.5625 -43.75 C 35.53125 -49.664062 41.101562 -52.625 46.28125 -52.625 C 49.34375 -52.625 51.535156 -51.515625 52.859375 -49.296875 C 54.179688 -47.078125 54.84375 -44.171875 54.84375 -40.578125 C 54.84375 -36.984375 54.3125 -33.070312 53.25 -28.84375 C 52.195312 -24.613281 51.085938 -21.078125 49.921875 -18.234375 C 53.941406 -25.515625 58.117188 -31.398438 62.453125 -35.890625 C 66.785156 -40.390625 71.378906 -42.640625 76.234375 -42.640625 C 79.410156 -42.640625 81.707031 -41.6875 83.125 -39.78125 C 84.550781 -37.882812 85.265625 -35.457031 85.265625 -32.5 C 85.265625 -30.488281 85 -28.347656 84.46875 -26.078125 C 83.945312 -23.804688 83.160156 -21.03125 82.109375 -17.75 C 80.304688 -12.144531 79.40625 -8.234375 79.40625 -6.015625 C 79.40625 -2.429688 80.988281 -0.640625 84.15625 -0.640625 C 88.070312 -0.640625 91.769531 -3.039062 95.25 -7.84375 C 98.738281 -12.65625 102.125 -18.597656 105.40625 -25.671875 L 107.296875 -23.453125 C 104.335938 -15.640625 100.476562 -8.957031 95.71875 -3.40625 C 90.96875 2.132812 85.691406 4.90625 79.890625 4.90625 Z M 79.890625 4.90625 "/></g></g></g><g fill="#e31b6d" fill-opacity="1"><g transform="translate(135.751546, 239.169995)"><g><path d="M 32.171875 13.796875 C 26.253906 13.796875 20.757812 12.738281 15.6875 10.625 C 10.613281 8.507812 6.570312 5.3125 3.5625 1.03125 C 0.550781 -3.25 -0.953125 -8.453125 -0.953125 -14.578125 C -0.953125 -22.078125 1.101562 -27.492188 5.21875 -30.828125 C 9.34375 -34.160156 14.050781 -35.828125 19.34375 -35.828125 C 16.488281 -32.753906 14.320312 -29.367188 12.84375 -25.671875 C 11.363281 -21.972656 10.625 -18.273438 10.625 -14.578125 C 10.625 -8.242188 12.707031 -2.960938 16.875 1.265625 C 21.050781 5.492188 27.050781 7.609375 34.875 7.609375 C 39.832031 7.609375 44.554688 6.707031 49.046875 4.90625 C 53.546875 3.113281 57.21875 0.476562 60.0625 -3 C 62.914062 -6.488281 64.34375 -10.664062 64.34375 -15.53125 C 64.34375 -19.757812 63.285156 -23.484375 61.171875 -26.703125 C 59.066406 -29.929688 56.425781 -32.679688 53.25 -34.953125 C 50.082031 -37.222656 45.859375 -39.941406 40.578125 -43.109375 C 35.191406 -46.273438 30.882812 -49.046875 27.65625 -51.421875 C 24.4375 -53.804688 21.71875 -56.6875 19.5 -60.0625 C 17.28125 -63.445312 16.171875 -67.359375 16.171875 -71.796875 C 16.171875 -77.929688 18.070312 -84.300781 21.875 -90.90625 C 25.675781 -97.507812 31.035156 -103.03125 37.953125 -107.46875 C 44.878906 -111.90625 52.675781 -114.125 61.34375 -114.125 C 67.15625 -114.125 71.378906 -112.695312 74.015625 -109.84375 C 76.660156 -106.988281 77.984375 -103.128906 77.984375 -98.265625 C 77.984375 -92.984375 76.710938 -87.066406 74.171875 -80.515625 C 71.640625 -73.960938 68.84375 -68.257812 65.78125 -63.40625 C 62.289062 -64.144531 60.546875 -66.414062 60.546875 -70.21875 C 60.546875 -72.226562 60.941406 -74.5 61.734375 -77.03125 C 62.523438 -79.5625 63.660156 -82.734375 65.140625 -86.546875 C 66.722656 -90.660156 67.910156 -94.007812 68.703125 -96.59375 C 69.503906 -99.1875 69.90625 -101.488281 69.90625 -103.5 C 69.90625 -105.71875 69.242188 -107.40625 67.921875 -108.5625 C 66.597656 -109.726562 64.296875 -110.3125 61.015625 -110.3125 C 54.785156 -110.3125 49 -108.382812 43.65625 -104.53125 C 38.320312 -100.675781 34.070312 -96 30.90625 -90.5 C 27.738281 -85.007812 26.15625 -79.992188 26.15625 -75.453125 C 26.15625 -72.066406 27.078125 -69.050781 28.921875 -66.40625 C 30.773438 -63.769531 33.070312 -61.472656 35.8125 -59.515625 C 38.5625 -57.554688 42.316406 -55.257812 47.078125 -52.625 C 52.785156 -49.34375 57.378906 -46.40625 60.859375 -43.8125 C 64.347656 -41.226562 67.332031 -37.953125 69.8125 -33.984375 C 72.300781 -30.023438 73.546875 -25.351562 73.546875 -19.96875 C 73.546875 -13 71.507812 -6.976562 67.4375 -1.90625 C 63.375 3.164062 58.171875 7.050781 51.828125 9.75 C 45.484375 12.445312 38.929688 13.796875 32.171875 13.796875 Z M 32.171875 13.796875 "/></g></g></g><g fill="#e31b6d" fill-opacity="1"><g transform="translate(220.706419, 239.169995)"><g><path d="M 2.375 2.53125 C 4.382812 -1.800781 9.878906 -13.84375 18.859375 -33.59375 C 27.835938 -53.351562 37.398438 -74.703125 47.546875 -97.640625 C 48.609375 -100.066406 49.140625 -102.234375 49.140625 -104.140625 C 49.140625 -105.503906 48.769531 -106.53125 48.03125 -107.21875 C 47.289062 -107.90625 45.863281 -108.25 43.75 -108.25 C 39.519531 -108.25 35.925781 -106.796875 32.96875 -103.890625 C 30.007812 -100.984375 27.789062 -97.3125 26.3125 -92.875 C 24.832031 -88.4375 24.09375 -83.945312 24.09375 -79.40625 C 24.09375 -78.03125 24.195312 -76.394531 24.40625 -74.5 C 21.65625 -74.5 19.566406 -75.867188 18.140625 -78.609375 C 16.722656 -81.359375 16.015625 -84.316406 16.015625 -87.484375 C 16.015625 -91.929688 17.597656 -96.210938 20.765625 -100.328125 C 23.929688 -104.453125 27.914062 -107.78125 32.71875 -110.3125 C 37.53125 -112.851562 42.265625 -114.125 46.921875 -114.125 C 50.617188 -114.125 53.601562 -113.117188 55.875 -111.109375 C 58.144531 -109.097656 59.882812 -105.503906 61.09375 -100.328125 C 62.3125 -95.148438 62.921875 -87.910156 62.921875 -78.609375 C 62.921875 -70.054688 62.285156 -57.21875 61.015625 -40.09375 C 60.390625 -31.957031 59.914062 -23.984375 59.59375 -16.171875 C 63.1875 -30.015625 69.867188 -45.8125 79.640625 -63.5625 C 89.421875 -81.3125 97.796875 -95.3125 104.765625 -105.5625 C 106.453125 -108.09375 107.796875 -109.804688 108.796875 -110.703125 C 109.804688 -111.609375 111.101562 -112.0625 112.6875 -112.0625 C 114.164062 -112.0625 115.859375 -111.691406 117.765625 -110.953125 C 115.117188 -104.609375 112.742188 -97.210938 110.640625 -88.765625 C 107.046875 -74.816406 103.738281 -58.78125 100.71875 -40.65625 C 97.707031 -22.53125 96.203125 -8.710938 96.203125 0.796875 C 96.203125 3.328125 96.304688 5.226562 96.515625 6.5 C 96.734375 7.769531 97.109375 9.144531 97.640625 10.625 L 98.59375 13.796875 C 95 13.796875 92.273438 13.210938 90.421875 12.046875 C 88.578125 10.878906 87.3125 9.082031 86.625 6.65625 C 85.9375 4.226562 85.59375 0.6875 85.59375 -3.96875 C 85.59375 -15.269531 86.910156 -27.3125 89.546875 -40.09375 C 92.191406 -52.882812 96.15625 -69.316406 101.4375 -89.390625 C 96.789062 -83.367188 91.613281 -74.726562 85.90625 -63.46875 C 80.195312 -52.21875 74.882812 -40.726562 69.96875 -29 C 65.0625 -17.269531 61.394531 -7.757812 58.96875 -0.46875 C 57.800781 -0.0507812 57.003906 0.15625 56.578125 0.15625 C 53.941406 0.15625 52.117188 -1.398438 51.109375 -4.515625 C 50.109375 -7.628906 49.609375 -12.515625 49.609375 -19.171875 C 49.609375 -25.085938 50.03125 -36.503906 50.875 -53.421875 C 51.71875 -70.109375 52.140625 -81.148438 52.140625 -86.546875 C 52.140625 -89.503906 52.035156 -92.460938 51.828125 -95.421875 C 44.222656 -77.773438 37.671875 -62.132812 32.171875 -48.5 C 24.878906 -30.957031 19.4375 -18.222656 15.84375 -10.296875 C 12.257812 -2.378906 8.984375 3.613281 6.015625 7.6875 C 3.054688 11.757812 0.15625 13.796875 -2.6875 13.796875 Z M 2.375 2.53125 "/></g></g></g></svg>